# xmcd CD database file
#
# Track frame offsets:
#	150
#	3320
#	24850
#	40959
#	54646
#	70323
#	92793
#	114220
#	132650
#	143062
#	161382
#	174290
#	197730
#	217602
#	236840
#
# Disc length: 3392 seconds
#
# Revision: 0
# Processed by: cddbd v1.5.2PL0 Copyright (c) Steve Scherf et al.
# Submitted via: CDex 1.51
#
DISCID=c20d3e0f
DTITLE=Les Claypool's Duo De Twang - Four Foot Shack
DYEAR=2014
DGENRE=Country
TTITLE0=Four Foot Shack
TTITLE1=Wynona's Big Brown Beaver
TTITLE2=Amos Moses
TTITLE3=Red State Girl
TTITLE4=The Bridge Came Tumblin' Down
TTITLE5=Boonville Stomp
TTITLE6=Stayin' Alive
TTITLE7=Rumble of the Diesel
TTITLE8=Pipe Line
TTITLE9=Buzzards of Greenhill
TTITLE10=Hendershot
TTITLE11=Man in the Box
TTITLE12=D's Diner
TTITLE13=Battle of New Orleans
TTITLE14=Jerry Was a Race Car Driver
EXTD=YEAR: 2014
EXTT0=
EXTT1=
EXTT2=
EXTT3=
EXTT4=
EXTT5=
EXTT6=
EXTT7=
EXTT8=
EXTT9=
EXTT10=
EXTT11=
EXTT12=
EXTT13=
EXTT14=
PLAYORDER=
